<svg width="37" height="32" viewBox="0 0 37 32" fill="none" xmlns="http://www.w3.org/2000/svg">
<path d="M26.1509 6.729C26.5576 7.75605 27.7354 8.5016 29.123 8.5016H29.2901C30.6777 8.5016 31.8551 7.7564 32.2621 6.729C32.3604 6.48038 32.4151 6.21599 32.4151 5.94099V4.65641H33.2017C35.1777 4.65641 36.7852 5.97353 36.7852 7.5927V28.7101C36.7852 30.3293 35.1777 31.6464 33.2017 31.6464H8.85594C7.93228 31.6464 7.03746 31.3316 6.40134 30.783L1.8215 26.8334C1.22132 26.3156 0.890728 25.6368 0.890728 24.9224V7.59236C0.890728 5.97319 2.49815 4.65607 4.4742 4.65607H5.47183V5.94065C5.47183 6.21565 5.52658 6.48037 5.6248 6.72866C6.03146 7.75571 7.20923 8.50126 8.59681 8.50126H8.76399C10.1516 8.50126 11.3293 7.75605 11.736 6.72866C11.8342 6.48003 11.889 6.21565 11.889 5.94065V4.65607H25.998V5.94065C25.998 6.21599 26.0523 6.48038 26.1509 6.729ZM20.6855 16.1516H16.9892C16.1905 16.1516 15.5431 16.7409 15.5431 17.4683V18.8341C15.5431 19.5611 16.1905 20.1509 16.9892 20.1509H20.6855C21.4842 20.1509 22.1316 19.5615 22.1316 18.8341V17.4683C22.1316 16.7409 21.4842 16.1516 20.6855 16.1516ZM22.1316 13.4506V12.0848C22.1316 11.3578 21.4842 10.768 20.6855 10.768H16.9892C16.1905 10.768 15.5431 11.3574 15.5431 12.0848V13.4506C15.5431 14.1776 16.1905 14.7673 16.9892 14.7673H20.6855C21.4842 14.7673 22.1316 14.1779 22.1316 13.4506ZM20.6855 21.5348H16.9892C16.1905 21.5348 15.5431 22.1241 15.5431 22.8515V24.2173C15.5431 24.9443 16.1905 25.5341 16.9892 25.5341H20.6855C21.4842 25.5341 22.1316 24.9447 22.1316 24.2173V22.8515C22.1316 22.1245 21.4842 21.5348 20.6855 21.5348ZM13.1779 18.8341V17.4683C13.1779 16.7413 12.5305 16.1516 11.7318 16.1516H8.03551C7.23682 16.1516 6.58942 16.7409 6.58942 17.4683V18.8341C6.58942 19.5611 7.23682 20.1509 8.03551 20.1509H11.7318C12.5301 20.1505 13.1779 19.5611 13.1779 18.8341ZM31.0852 12.0848C31.0852 11.3578 30.4378 10.768 29.6391 10.768H25.9428C25.1441 10.768 24.4967 11.3574 24.4967 12.0848V13.4506C24.4967 14.1776 25.1441 14.7673 25.9428 14.7673H29.6391C30.4378 14.7673 31.0852 14.1779 31.0852 13.4506V12.0848ZM31.0852 17.4683C31.0852 16.7413 30.4378 16.1516 29.6391 16.1516H25.9428C25.1441 16.1516 24.4967 16.7409 24.4967 17.4683V18.8341C24.4967 19.5611 25.1441 20.1509 25.9428 20.1509H29.6391C30.4378 20.1509 31.0852 19.5615 31.0852 18.8341V17.4683ZM31.0852 22.8515C31.0852 22.1245 30.4378 21.5348 29.6391 21.5348H25.9428C25.1441 21.5348 24.4967 22.1241 24.4967 22.8515V24.2173C24.4967 24.9443 25.1441 25.5341 25.9428 25.5341H29.6391C30.4378 25.5341 31.0852 24.9447 31.0852 24.2173V22.8515ZM3.4193 24.3803H3.00261C2.81495 24.3803 2.71799 24.5642 2.84713 24.6758L3.53925 25.2762L8.26413 29.3755L9.31693 30.2888C9.44984 30.4043 9.6864 30.3272 9.6864 30.1683V29.5727V26.2796C9.6864 25.2348 8.64279 24.3796 7.36763 24.3796H3.4193V24.3803ZM11.7318 10.7684H8.03551C7.23682 10.7684 6.58942 11.3578 6.58942 12.0851V13.4509C6.58942 14.1779 7.23682 14.7677 8.03551 14.7677H11.7318C12.5305 14.7677 13.1779 14.1783 13.1779 13.4509V12.0851C13.1779 11.3578 12.5301 10.7684 11.7318 10.7684Z" fill="#FFE8AC"/>
<path d="M29.1234 0.824219H29.2906C30.4015 0.824219 31.3105 1.56908 31.3105 2.47935V5.94064C31.3105 6.85091 30.4015 7.59577 29.2906 7.59577H29.1234C28.0125 7.59577 27.1035 6.85091 27.1035 5.94064V2.47935C27.1031 1.56908 28.0121 0.824219 29.1234 0.824219Z" fill="#FFE8AC"/>
<path d="M8.76327 7.59611H8.5961C7.4852 7.59611 6.57617 6.85125 6.57617 5.94098V2.47935C6.57617 1.56908 7.4852 0.824219 8.5961 0.824219H8.76327C9.87417 0.824219 10.7832 1.56908 10.7832 2.47935V5.94064C10.7832 6.85125 9.87417 7.59611 8.76327 7.59611Z" fill="#FFE8AC"/>
</svg>
