<svg width="32" height="33" viewBox="0 0 32 33" fill="none" xmlns="http://www.w3.org/2000/svg">
<path d="M19.4146 18.8352H12.5199C12.2026 18.8352 11.9453 19.1324 11.9453 19.4991V31.4491C11.9453 31.8157 12.2026 32.1129 12.5199 32.1129H19.4146C19.7319 32.1129 19.9892 31.8157 19.9892 31.4491V19.4991C19.9892 19.1324 19.7319 18.8352 19.4146 18.8352Z" fill="#FFE8AC"/>
<path d="M29.5001 12.0564L19.4881 2.24691C17.5443 0.343743 14.4952 0.337317 12.5452 2.23342L2.44766 12.0506C1.44972 13.0208 0.884766 14.3676 0.884766 15.776V26.9727C0.884766 29.8114 3.13579 32.113 5.91217 32.113H8.42588C8.77277 32.113 9.05431 31.8251 9.05431 31.4704V19.9049C9.05431 18.1309 10.4614 16.6923 12.1964 16.6923H19.7375C21.4726 16.6923 22.8797 18.1309 22.8797 19.9049V31.4704C22.8797 31.8251 23.1612 32.113 23.5081 32.113H26.0218C28.7982 32.113 31.0492 29.8114 31.0492 26.9727V15.7683C31.0492 14.3669 30.4899 13.026 29.5001 12.0564Z" fill="#FFE8AC"/>
</svg>
