<svg width="32" height="32" viewBox="0 0 32 32" fill="none" xmlns="http://www.w3.org/2000/svg">
<path d="M12.4046 0.420623C5.57101 0.572082 0.110354 6.19831 0.245717 12.9482C0.38108 19.698 6.06244 25.0773 12.896 24.9258C15.7907 24.8617 18.4353 23.8187 20.5162 22.1205L29.4924 30.6194C29.6305 30.7516 29.7936 30.8556 29.9726 30.9253C30.1516 30.995 30.3428 31.0291 30.5354 31.0257C30.7279 31.0222 30.918 30.9812 31.0946 30.9051C31.2713 30.829 31.4311 30.7193 31.565 30.5821C31.6988 30.445 31.804 30.2832 31.8745 30.1061C31.945 29.9289 31.9794 29.7398 31.9759 29.5496C31.9723 29.3594 31.9308 29.1719 31.8537 28.9978C31.7766 28.8237 31.6654 28.6665 31.5265 28.5351L22.5388 20.0252C24.1608 17.9027 25.1121 15.25 25.0549 12.3983C24.9195 5.64844 19.2382 0.269164 12.4046 0.420623ZM12.4624 3.30359C17.7186 3.18709 22.0321 7.2712 22.1362 12.463C22.2403 17.6548 18.0944 21.9264 12.8382 22.0429C7.58203 22.1594 3.26856 18.0753 3.16445 12.8835C3.06033 7.69169 7.20623 3.42008 12.4624 3.30359Z" fill="#330247"/>
</svg>
