<svg width="32" height="31" viewBox="0 0 32 31" fill="none" xmlns="http://www.w3.org/2000/svg">
<path d="M26.6399 0.201172H6.03422C3.19386 0.201172 0.882812 2.84967 0.882812 6.10475V19.3878C0.882812 22.6429 3.19386 25.2914 6.03422 25.2914H7.966V29.0475C7.966 29.6106 8.24546 30.1242 8.68591 30.3722C8.86621 30.4733 9.06003 30.5234 9.25385 30.5234C9.53396 30.5234 9.81149 30.4186 10.0414 30.2157L15.6023 25.2921H26.6405C29.4809 25.2921 31.7919 22.6436 31.7919 19.3885V6.10475C31.7919 2.84967 29.4802 0.201172 26.6399 0.201172ZM24.7081 17.9119H7.966C7.2551 17.9119 6.67815 17.2507 6.67815 16.436C6.67815 15.6213 7.2551 14.9601 7.966 14.9601H24.7081C25.419 14.9601 25.9959 15.6213 25.9959 16.436C25.9959 17.2507 25.419 17.9119 24.7081 17.9119ZM24.7081 10.5324H7.966C7.2551 10.5324 6.67815 9.87124 6.67815 9.05654C6.67815 8.24185 7.2551 7.58065 7.966 7.58065H24.7081C25.419 7.58065 25.9959 8.24185 25.9959 9.05654C25.9959 9.87124 25.419 10.5324 24.7081 10.5324Z" fill="#FFE8AC"/>
</svg>
