<svg width="32" height="34" viewBox="0 0 32 34" fill="none" xmlns="http://www.w3.org/2000/svg">
<path d="M16.1736 7.58174C18.0061 7.58174 19.4917 6.0758 19.4917 4.21812C19.4917 2.36044 18.0061 0.854492 16.1736 0.854492C14.341 0.854492 12.8555 2.36044 12.8555 4.21812C12.8555 6.0758 14.341 7.58174 16.1736 7.58174Z" fill="#FFE8AC"/>
<path d="M6.86499 27.7946C8.69754 27.7946 10.1831 26.2887 10.1831 24.431C10.1831 22.5733 8.69754 21.0674 6.86499 21.0674C5.03245 21.0674 3.54688 22.5733 3.54688 24.431C3.54688 26.2887 5.03245 27.7946 6.86499 27.7946Z" fill="#FFE8AC"/>
<path d="M22.164 12.3158C22.164 12.0199 22.1486 11.724 22.1026 11.4437C21.7953 9.34144 19.6754 7.97107 17.6938 8.6874C17.2175 8.8587 16.7106 8.95213 16.1883 8.95213C15.5738 8.95213 15.0055 8.82755 14.4678 8.60954C12.9009 7.9555 11.0882 8.71855 10.5352 10.3381C10.3202 10.961 10.1973 11.6306 10.1973 12.3313C10.1973 12.7051 10.5045 13.0009 10.8578 13.0009H21.4881C21.8568 12.9698 22.1486 12.6739 22.164 12.3158Z" fill="#FFE8AC"/>
<path d="M25.4822 27.7946C27.3147 27.7946 28.8003 26.2887 28.8003 24.431C28.8003 22.5733 27.3147 21.0674 25.4822 21.0674C23.6496 21.0674 22.1641 22.5733 22.1641 24.431C22.1641 26.2887 23.6496 27.7946 25.4822 27.7946Z" fill="#FFE8AC"/>
<path d="M20.1678 33.1982H30.7981C31.1668 33.1982 31.4587 32.9023 31.4587 32.5286C31.4587 31.3295 31.1207 30.2239 30.5216 29.2896C29.9225 28.3241 28.6782 28.0126 27.6951 28.5577C27.0345 28.9314 26.2818 29.1494 25.4676 29.1494C24.6534 29.1494 23.9007 28.9314 23.2402 28.5577C22.257 27.9971 21.0127 28.3241 20.4136 29.2896C19.8299 30.2239 19.4766 31.3295 19.4766 32.5286C19.4919 32.9023 19.7992 33.1982 20.1678 33.1982Z" fill="#FFE8AC"/>
<path d="M1.81011 29.2741C1.211 30.2085 0.873047 31.3297 0.873047 32.5287C0.873047 32.9025 1.18028 33.1983 1.5336 33.1983H12.1792C12.5479 33.1983 12.8398 32.9025 12.8398 32.5287C12.8398 31.6878 12.6708 30.8936 12.3636 30.1617C11.7645 28.7447 10.1208 28.0906 8.73821 28.7291C8.16983 28.9938 7.52464 29.134 6.84873 29.134C6.03456 29.134 5.26648 28.9159 4.60593 28.5422C3.65351 27.9972 2.42457 28.3242 1.81011 29.2741Z" fill="#FFE8AC"/>
<path d="M7.52423 19.043V8.93651H9.52124C9.88992 8.93651 10.1818 8.64064 10.1818 8.2669C10.1818 7.89316 9.88992 7.59729 9.52124 7.59729H6.86368C6.495 7.59729 6.20312 7.89316 6.20312 8.2669V19.043C6.20312 19.4167 6.495 19.7126 6.86368 19.7126C7.23236 19.7126 7.52423 19.4167 7.52423 19.043Z" fill="#FFE8AC"/>
<path d="M25.4822 19.7126C25.8509 19.7126 26.1427 19.4168 26.1427 19.043V8.2514C26.1427 7.87766 25.8509 7.58179 25.4822 7.58179H22.8246C22.4559 7.58179 22.1641 7.87766 22.1641 8.2514C22.1641 8.62513 22.4559 8.92101 22.8246 8.92101H24.8216V19.043C24.8216 19.4168 25.1135 19.7126 25.4822 19.7126Z" fill="#FFE8AC"/>
</svg>
