<svg width="35" height="30" viewBox="0 0 35 30" fill="none" xmlns="http://www.w3.org/2000/svg">
<path d="M15.4727 18.5388C15.6649 22.9099 17.2 25.256 17.8524 25.256C18.5048 25.256 20.0399 22.9099 20.2321 18.5388H15.4727Z" fill="#FFE8AC"/>
<path d="M22.3517 16.7068H26.7789C26.3704 13.7201 23.9963 11.253 20.8066 10.2906C21.7233 11.9138 22.2471 14.2727 22.3517 16.7068Z" fill="#FFE8AC"/>
<path d="M17.8524 9.98956C17.2 9.98956 15.6649 12.3357 15.4727 16.7068H20.2321C20.0399 12.3357 18.5048 9.98956 17.8524 9.98956Z" fill="#FFE8AC"/>
<path d="M22.3517 18.5388C22.2471 20.9735 21.724 23.3319 20.8066 24.955C23.9963 23.9926 26.3704 21.5249 26.7789 18.5388H22.3517Z" fill="#FFE8AC"/>
<path d="M13.3511 18.5388H8.92383C9.33235 21.5255 11.7064 23.9926 14.8961 24.955C13.9794 23.3319 13.4557 20.9729 13.3511 18.5388Z" fill="#FFE8AC"/>
<path d="M13.3511 16.7068C13.4557 14.2721 13.9787 11.9138 14.8961 10.2906C11.7064 11.253 9.33235 13.7201 8.92383 16.7068H13.3511Z" fill="#FFE8AC"/>
<path d="M29.1599 0.524414H6.54293C3.42531 0.524414 0.888672 2.71606 0.888672 5.40967V24.9507C0.888672 27.6443 3.42531 29.8359 6.54293 29.8359H29.1599C32.2776 29.8359 34.8142 27.6443 34.8142 24.9507V5.40967C34.8142 2.71606 32.2776 0.524414 29.1599 0.524414ZM29.1599 27.3933H6.54293C4.98377 27.3933 3.7158 26.2978 3.7158 24.9507V8.12098H31.9871V24.9507C31.9871 26.2978 30.7191 27.3933 29.1599 27.3933Z" fill="#FFE8AC"/>
</svg>
