<svg width="26" height="30" viewBox="0 0 26 30" fill="none" xmlns="http://www.w3.org/2000/svg">
<path d="M25.528 22.8239L24.1831 21.1988C23.5146 20.3916 23.1469 19.378 23.1469 18.3438V14.4963C23.1469 10.324 20.3418 6.77962 16.4611 5.51333C16.7147 5.04317 16.8603 4.51027 16.8603 3.94396C16.8603 2.0633 15.2769 0.533203 13.3308 0.533203C11.3847 0.533203 9.80138 2.0633 9.80138 3.94396C9.80138 4.50969 9.94698 5.04258 10.2006 5.51333C6.31986 6.7802 3.51474 10.3246 3.51474 14.4963V18.3438C3.51474 19.378 3.14651 20.3916 2.47799 21.1994L1.13306 22.8239C0.841873 23.1756 0.784849 23.6575 0.986861 24.0638C1.18887 24.4701 1.61413 24.7286 2.08064 24.7286H24.5804C25.0469 24.7286 25.4722 24.4707 25.6742 24.0638C25.8762 23.6575 25.8192 23.1756 25.528 22.8239ZM12.2274 3.94338C12.2274 3.35596 12.7224 2.87759 13.3302 2.87759C13.9381 2.87759 14.4331 3.35596 14.4331 3.94338C14.4331 4.53079 13.9381 5.00916 13.3302 5.00916C12.7224 5.00916 12.2274 4.53138 12.2274 3.94338Z" fill="#FFE8AC"/>
<path d="M17.1816 25.9011H9.47845C9.08049 25.9011 8.77656 26.2686 8.88879 26.6374C9.45418 28.4928 11.225 29.8447 13.3294 29.8447C15.4339 29.8447 17.2053 28.4923 17.77 26.6374C17.8823 26.2686 17.5783 25.9011 17.1804 25.9011H17.1816Z" fill="#FFE8AC"/>
</svg>
