<svg width="29" height="30" viewBox="0 0 29 30" fill="none" xmlns="http://www.w3.org/2000/svg">
<path d="M14.5 0.0322266C6.50446 0.0322266 0 6.60656 0 14.688C0 22.7694 6.50446 29.3438 14.5 29.3438C22.4955 29.3438 29 22.7694 29 14.688C29 6.60656 22.4955 0.0322266 14.5 0.0322266ZM14.5 6.74945C16.8357 6.74945 18.7292 8.66325 18.7292 11.024C18.7292 13.3848 16.8357 15.2986 14.5 15.2986C12.1643 15.2986 10.2708 13.3848 10.2708 11.024C10.2708 8.66325 12.1643 6.74945 14.5 6.74945ZM22.385 23.8814C20.2849 25.7598 17.5214 26.9011 14.5 26.9011C11.4786 26.9011 8.7151 25.7598 6.61502 23.8814C6.1486 23.4643 5.97823 22.7908 6.20842 22.2064C7.51946 18.8777 10.7366 16.52 14.5006 16.52C18.2646 16.52 21.4818 18.8783 22.7928 22.2064C23.023 22.7908 22.852 23.4643 22.3862 23.8814H22.385Z" fill="#FFF1CB"/>
</svg>
